<?xml version="1.0" encoding="UTF-8"?>
<svg version="1.1" xmlns="http://www.w3.org/2000/svg" width="1920" height="498">
<path d="M0 0 C480.15 0 960.3 0 1455 0 C1455 124.41 1455 248.82 1455 377 C1415 367 1415 367 1398 362 C1400.96301873 359.03698127 1403.502951 356.54211287 1406.6875 354 C1421.82343465 340.77747596 1430.5503264 321.7409005 1433 302 C1433.09650464 299.61267408 1433.14774208 297.22322251 1433.16113281 294.83398438 C1433.16609772 294.1547995 1433.17106262 293.47561462 1433.17617798 292.77584839 C1433.19067393 290.54847156 1433.19758284 288.32116609 1433.203125 286.09375 C1433.20736607 284.93994591 1433.20736607 284.93994591 1433.21169281 283.76283264 C1433.22663952 279.68661157 1433.23589569 275.61042543 1433.24023438 271.53417969 C1433.24569157 267.36670447 1433.26967394 263.19956048 1433.29820633 259.03218842 C1433.31702654 255.79068128 1433.32204863 252.54925058 1433.32357025 249.30769348 C1433.32655726 247.77381087 1433.33444816 246.23992826 1433.34775543 244.70610046 C1433.54564689 220.12935708 1426.55540424 198.82147826 1409.58007812 180.60498047 C1394.03858848 164.81855387 1373.56908675 156.67807366 1351.49008179 156.43885803 C1350.13140735 156.44356713 1348.7727342 156.44866063 1347.4140625 156.45410156 C1345.93387788 156.44533586 1344.45370267 156.43483985 1342.97354126 156.42277527 C1339.01172761 156.39526056 1335.05022835 156.39150281 1331.08833313 156.39249516 C1326.92698371 156.38933587 1322.76576981 156.36365595 1318.60449219 156.34051514 C1310.74976514 156.30018005 1302.89512062 156.27966777 1295.04030609 156.26654124 C1286.08719037 156.25059435 1277.13421359 156.21214701 1268.18117905 156.17194796 C1249.78747196 156.08985726 1231.39385344 156.03854203 1213 156 C1213 146.1 1213 136.2 1213 126 C1285.93 126 1358.86 126 1434 126 C1434 90.36 1434 54.72 1434 18 C1402.38974035 18.0835334 1370.77953708 18.17409962 1339.16934704 18.28005161 C1335.43207145 18.29256953 1331.69479558 18.30500245 1327.95751953 18.31738281 C1327.21353818 18.31984881 1326.46955684 18.3223148 1325.7030306 18.32485552 C1313.67829489 18.36451022 1301.65354987 18.3972897 1289.62878715 18.42749982 C1277.27765615 18.45868399 1264.92656446 18.49732281 1252.57547772 18.54279006 C1244.96264471 18.57058249 1237.34984023 18.59265527 1229.73697032 18.60726251 C1223.88589884 18.61911432 1218.03489494 18.64136989 1212.18386841 18.66738319 C1209.79349929 18.67641219 1207.40311492 18.6821382 1205.01272964 18.68421364 C1176.1880816 18.71370868 1150.97193049 22.72300259 1129.5234375 43.453125 C1123.32429573 49.74763819 1118.76768702 56.97113012 1114.6875 64.75 C1114.37377441 65.33233398 1114.06004883 65.91466797 1113.73681641 66.51464844 C1107.28518374 79.55599044 1106.38895856 93.29497332 1106.46875 107.53515625 C1106.46604461 109.26997595 1106.46215359 111.00479416 1106.45715332 112.73960876 C1106.45130888 116.34746972 1106.45965659 119.95493033 1106.47851562 123.56274414 C1106.50131956 128.14378974 1106.48814072 132.72389819 1106.46422577 137.30490971 C1106.44964417 140.87844164 1106.45442946 144.45175808 1106.46473694 148.02529716 C1106.46736936 149.71267247 1106.46426016 151.40006857 1106.45481873 153.08741951 C1106.34591816 178.00259482 1114.56013777 198.02897445 1132 216 C1145.40796849 229.45663625 1164.27582983 238.0460057 1183.41610718 238.15821838 C1184.68647827 238.1680072 1185.95684937 238.17779602 1187.26571655 238.18788147 C1188.66070519 238.19378449 1190.05569422 238.19959501 1191.45068359 238.20532227 C1192.92938506 238.21490929 1194.40808383 238.22491985 1195.88677979 238.23532104 C1199.89041175 238.26228687 1203.8940554 238.28334133 1207.89772749 238.30332303 C1212.08578067 238.3252341 1216.27379816 238.35259767 1220.46182251 238.37937927 C1228.38769662 238.42923705 1236.31359061 238.47420146 1244.2395035 238.51740164 C1253.26488746 238.5668332 1262.29023561 238.62172934 1271.3155849 238.67708123 C1289.87702479 238.79079509 1308.43849771 238.89693578 1327 239 C1327 248.9 1327 258.8 1327 269 C1254.07 269 1181.14 269 1106 269 C1106 274.61 1106 280.22 1106 286 C1096.99997152 284.87499644 1096.99997152 284.87499644 1093.94180298 284.08059692 C1093.24264267 283.90159348 1092.54348236 283.72259003 1091.82313538 283.53816223 C1091.08566574 283.34397202 1090.34819611 283.1497818 1089.58837891 282.94970703 C1088.38572136 282.63949364 1088.38572136 282.63949364 1087.1587677 282.32301331 C1084.51343599 281.63938932 1081.87001833 280.94865144 1079.2265625 280.2578125 C1077.34332044 279.76950514 1075.45996637 279.28162963 1073.57650757 278.79415894 C1068.59709825 277.50410064 1063.61929283 276.20795479 1058.64178467 274.9105835 C1053.74134623 273.63448859 1048.83934405 272.36443256 1043.9375 271.09375 C1034.24754661 268.58063409 1024.56012504 266.05788553 1014.87365723 263.53137207 C1009.85788753 262.22322181 1004.84135488 260.91801973 999.82467842 259.61335182 C995.89078613 258.58976824 991.95741123 257.56420786 988.02418137 256.53808212 C986.160141 256.05213876 984.29590818 255.56693301 982.43147659 255.08249283 C979.86831656 254.41630287 977.30589774 253.74733447 974.74365234 253.07763672 C973.60330599 252.78224817 973.60330599 252.78224817 972.43992233 252.48089218 C967.22830516 251.11415258 967.22830516 251.11415258 965 250 C965 209.08 965 168.16 965 126 C1001.63 126 1038.26 126 1076 126 C1076 90.36 1076 54.72 1076 18 C967.43 18 858.86 18 747 18 C747 53.64 747 89.28 747 126 C783.63 126 820.26 126 858 126 C858 157.68 858 189.36 858 222 C850.74237957 220.68043265 843.73869208 219.26938409 836.640625 217.3828125 C835.67398926 217.12967789 834.70735352 216.87654327 833.71142578 216.61573792 C831.63629926 216.07194345 829.561644 215.52634797 827.48742676 214.97909546 C821.91044212 213.50777962 816.33001536 212.04961501 810.75 210.58984375 C809.0355368 210.14077415 809.0355368 210.14077415 807.28643799 209.68263245 C796.60798556 206.88896292 785.91379902 204.15877834 775.21582031 201.44100952 C760.87608672 197.79779292 746.54448374 194.12989381 732.25 190.3125 C730.41163574 189.82172974 730.41163574 189.82172974 728.53613281 189.32104492 C720.43557856 187.14519285 720.43557856 187.14519285 717 186 C717 130.56 717 75.12 717 18 C681.69 18 646.38 18 610 18 C610 63.54 610 109.08 610 156 C597.62478188 156 597.62478188 156 592.71044922 154.70581055 C591.6023288 154.42098312 590.49420837 154.1361557 589.35250854 153.84269714 C588.1817276 153.52722427 587.01094666 153.2117514 585.8046875 152.88671875 C584.54133575 152.55767044 583.27798401 152.22862213 581.97634888 151.88960266 C578.61223753 151.01303473 575.25260904 150.12035982 571.89367676 149.22418213 C568.63356741 148.35745475 565.36933085 147.50678588 562.10546875 146.65429688 C540.04505983 140.8646627 518.02832181 134.91003756 496 129 C496 92.37 496 55.74 496 18 C460.69 18 425.38 18 389 18 C389 45.39 389 72.78 389 101 C378.93079502 98.986159 368.96201938 96.49050484 359 94 C359 68.92 359 43.84 359 18 C327.40676218 18.08354675 295.81358065 18.17412136 264.22041237 18.28005161 C260.48442555 18.2925694 256.74843845 18.30500234 253.01245117 18.31738281 C252.26873214 18.31984881 251.5250131 18.3223148 250.75875712 18.32485552 C238.74116349 18.36450099 226.72356056 18.39728452 214.70593994 18.42749982 C202.36045422 18.45869341 190.01500774 18.49733614 177.66956621 18.54279006 C170.06134254 18.57057065 162.45314733 18.59264847 154.84488679 18.60726251 C148.99554578 18.61912286 143.14627221 18.64138355 137.29697609 18.66738319 C134.90863955 18.67640555 132.5202878 18.68213662 130.13193512 18.68421364 C109.48349444 18.59378055 109.48349444 18.59378055 89.23999023 22.27075195 C83.92174991 23.52877949 79.32493544 22.09786236 74.16015625 20.66796875 C73.1315448 20.40060913 72.10293335 20.13324951 71.04315186 19.85778809 C67.71090274 18.98677469 64.38701279 18.08754483 61.0625 17.1875 C58.77285778 16.58322737 56.48273327 15.98077933 54.19213867 15.38012695 C48.51205311 13.88616083 42.83819551 12.36992699 37.16577148 10.84716797 C32.47378104 9.59158018 27.77627616 8.35729779 23.078125 7.125 C15.38002469 5.10327329 7.68760436 3.0613399 0 1 C0 0.67 0 0.34 0 0 Z " fill="#6394FD" transform="translate(465,121)"/>
<path d="M0 0 C1.03589059 -0.00085442 2.07178119 -0.00170885 3.1390624 -0.00258917 C6.5967544 -0.00423122 10.05439746 0.00125651 13.51208496 0.00672913 C15.99599201 0.0070113 18.47989915 0.00685268 20.96380615 0.00628662 C26.3046379 0.00605919 31.64545454 0.00888854 36.98628235 0.01452446 C44.70812571 0.02266762 52.42996316 0.02525757 60.15181035 0.02651245 C72.68141045 0.02869855 85.21100403 0.03534664 97.74060059 0.04481506 C109.908569 0.05400063 122.07653565 0.06107586 134.24450684 0.06532288 C134.99512793 0.0655856 135.74574903 0.06584832 136.51911622 0.06611901 C140.28493709 0.06742409 144.05075797 0.06868779 147.81657887 0.06993091 C179.03474814 0.08028975 210.25290527 0.09872064 241.47106934 0.12025452 C241.47106934 35.76025452 241.47106934 71.40025452 241.47106934 108.12025452 C168.54106934 108.12025452 95.61106934 108.12025452 20.47106934 108.12025452 C20.47106934 117.69025452 20.47106934 127.26025452 20.47106934 137.12025452 C24.66382568 137.10978088 28.85658203 137.09930725 33.1763916 137.08851624 C47.06633093 137.05530022 60.95626971 137.03315227 74.84623814 137.01663017 C83.2634389 137.00635021 91.68060184 136.99235318 100.09777832 136.96937561 C107.44055091 136.94934067 114.78329607 136.93651429 122.12609524 136.93207753 C126.00826251 136.92948713 129.8903514 136.92346831 133.77249336 136.9087944 C137.43897447 136.89505014 141.10534616 136.89106524 144.77185059 136.89403915 C146.73348907 136.8932409 148.69511609 136.8825686 150.65672302 136.87141418 C174.62442281 136.92600758 196.39665185 142.62878761 214.47106934 159.12025452 C215.17747559 159.74544983 215.88388184 160.37064514 216.61169434 161.01478577 C231.85640432 175.26918979 241.04189611 195.79540835 241.93813324 216.59481812 C242.02547849 220.33344824 242.02463134 224.06837942 242.00231934 227.80775452 C242.00502674 229.44667285 242.00891939 231.08558961 242.01391602 232.72450256 C242.01975263 236.12969017 242.01144011 239.53445297 241.99255371 242.93959045 C241.9697674 247.25251102 241.98292241 251.5644351 242.00684357 255.87731934 C242.0214618 259.25277392 242.01662331 262.62800143 242.0063324 266.00346375 C242.00370905 267.59149806 242.00677532 269.17955465 242.01625061 270.76756287 C242.0874393 286.04127542 239.79927419 300.4984149 232.47106934 314.12025452 C232.05341309 314.93494202 231.63575684 315.74962952 231.20544434 316.58900452 C227.07866385 324.08361735 221.43298632 330.07460275 215.47106934 336.12025452 C214.73888184 336.86533264 214.00669434 337.61041077 213.25231934 338.37806702 C192.53969407 358.08597538 165.97466109 359.43443437 138.93249512 359.3473053 C136.46740727 359.34674036 134.00231909 359.34705936 131.53723145 359.34819031 C126.25541773 359.34864363 120.97366549 359.343024 115.69186783 359.33171463 C108.05553658 359.31537449 100.41922915 359.31024297 92.78288232 359.30773865 C80.38970577 359.30337481 67.99655573 359.29010153 55.60339355 359.27113342 C43.57344698 359.25274052 31.54350763 359.23860076 19.5135498 359.2301178 C18.77047904 359.22959235 18.02740827 359.2290669 17.26182021 359.22852553 C13.53359133 359.22591522 9.80536239 359.22338786 6.07713342 359.22090173 C-24.7915778 359.20021012 -55.66024028 359.16336258 -86.52893066 359.12025452 C-86.52893066 323.48025452 -86.52893066 287.84025452 -86.52893066 251.12025452 C-13.59893066 251.12025452 59.33106934 251.12025452 134.47106934 251.12025452 C134.47106934 241.22025452 134.47106934 231.32025452 134.47106934 221.12025452 C129.98062012 221.14120178 125.4901709 221.16214905 120.86364746 221.18373108 C105.98786973 221.25016166 91.11208598 221.29445838 76.23619843 221.3275032 C67.2214752 221.34806365 58.20689325 221.37605841 49.19226074 221.42201233 C41.32832661 221.46208097 33.46449487 221.4877346 25.60046148 221.4966085 C21.44262344 221.50178962 17.28507812 221.51382832 13.12733459 221.54317474 C9.20058594 221.57066183 5.27424594 221.57863367 1.3474102 221.57268524 C-0.08106788 221.57377082 -1.50956203 221.58152427 -2.93795586 221.59707642 C-16.00657948 221.73218545 -29.1331686 219.69783882 -40.77893066 213.43275452 C-41.4273291 213.0967926 -42.07572754 212.76083069 -42.74377441 212.41468811 C-49.10167687 209.01246084 -55.19502869 204.98946049 -60.52893066 200.12025452 C-60.52893066 199.46025452 -60.52893066 198.80025452 -60.52893066 198.12025452 C-61.51893066 197.79025452 -62.50893066 197.46025452 -63.52893066 197.12025452 C-63.52893066 196.46025452 -63.52893066 195.80025452 -63.52893066 195.12025452 C-64.18893066 195.12025452 -64.84893066 195.12025452 -65.52893066 195.12025452 C-70.93647179 189.196641 -75.18329205 182.41700041 -78.84143066 175.30775452 C-79.15418945 174.71800842 -79.46694824 174.12826233 -79.78918457 173.52064514 C-86.19740684 160.5196438 -87.13753827 147.47821153 -87.06018066 133.28041077 C-87.06288525 131.50171701 -87.06677562 129.72302472 -87.07177734 127.94433594 C-87.0776286 124.24054198 -87.06925346 120.53713745 -87.05041504 116.83338928 C-87.0276449 112.13247378 -87.04076429 107.4324732 -87.0647049 102.73159122 C-87.0792968 99.06537227 -87.07449601 95.3993631 -87.06419373 91.73313713 C-87.06156235 90.00193099 -87.06466662 88.27070455 -87.07411194 86.53952217 C-87.18168083 61.29192371 -79.01971973 41.34169811 -61.71643066 22.87025452 C-44.71287232 6.65516763 -23.14505053 -0.07043117 0 0 Z " fill="#6D93FE" transform="translate(86.5289306640625,138.87974548339844)"/>
<path d="M0 0 C1.78762639 0.48810149 3.57633359 0.97226004 5.36604309 1.45266724 C9.0570471 2.44838203 12.74175685 3.46372535 16.4229126 4.49523926 C21.41427291 5.88818025 26.42176079 7.20620617 31.44287109 8.48730469 C32.21272591 8.68376681 32.98258072 8.88022894 33.77576447 9.08264446 C35.32307619 9.47710862 36.87044947 9.87133139 38.41788483 10.26531029 C42.35865422 11.27252508 46.29473662 12.29768715 50.23095703 13.32250977 C51.84035087 13.74122689 53.44974623 14.15993818 55.05914307 14.5786438 C55.86905952 14.78941181 56.67897598 15.00017982 57.51343536 15.21733475 C61.84044804 16.34287603 66.16806363 17.46609495 70.49560547 18.58959961 C81.27246861 21.38792982 92.04841435 24.18978354 102.82421875 26.9921875 C106.31103127 27.89894074 109.79784893 28.80567417 113.28466797 29.71240234 C114.13685472 29.93401 114.98904148 30.15561766 115.86705208 30.3839407 C124.24428445 32.56236702 132.62164572 34.74029723 140.99911499 36.91781235 C143.44653242 37.55398922 145.89392136 38.19027561 148.34130859 38.8265686 C167.38752507 43.77788601 186.43974079 48.70332625 205.51171875 53.5546875 C219.61505049 57.14228293 233.71012278 60.75944025 247.79043579 64.43649292 C249.66799253 64.92674284 251.54573533 65.41628086 253.42367554 65.90505981 C255.98099018 66.57106917 258.53749696 67.24008551 261.09375 67.91015625 C262.23204758 68.20607162 262.23204758 68.20607162 263.39334106 68.50796509 C268.59447161 69.87731393 268.59447161 69.87731393 270.82421875 70.9921875 C270.82421875 77.9221875 270.82421875 84.8521875 270.82421875 91.9921875 C197.89421875 91.9921875 124.96421875 91.9921875 49.82421875 91.9921875 C49.82421875 139.1821875 49.82421875 186.3721875 49.82421875 234.9921875 C87.11421875 234.9921875 124.40421875 234.9921875 162.82421875 234.9921875 C162.82421875 225.0921875 162.82421875 215.1921875 162.82421875 204.9921875 C146.98421875 204.9921875 131.14421875 204.9921875 114.82421875 204.9921875 C114.82421875 177.2721875 114.82421875 149.5521875 114.82421875 120.9921875 C166.30421875 120.9921875 217.78421875 120.9921875 270.82421875 120.9921875 C270.91703125 156.35375 270.91703125 156.35375 271.01171875 192.4296875 C271.03903076 199.84493896 271.06634277 207.26019043 271.09448242 214.90014648 C271.10803223 224.02746582 271.10803223 224.02746582 271.11054993 228.31434631 C271.11331983 231.27783592 271.12446065 234.24116065 271.14094543 237.2046051 C271.3058102 268.25584575 269.28942878 294.70384826 246.64453125 318.203125 C226.17121022 338.44959483 202.33039802 343.3281317 174.66210938 343.25097656 C172.99952543 343.25369458 171.33694269 343.25726001 169.67436218 343.26159668 C165.20534688 343.27062668 160.73642508 343.26721566 156.26740837 343.26083851 C151.56193692 343.25572939 146.85647279 343.26048348 142.15100098 343.26361084 C134.2531594 343.2672363 126.35535539 343.26248885 118.45751953 343.25292969 C109.36263026 343.2420479 100.2678307 343.24557448 91.17294359 343.2565825 C83.32533015 343.26569603 75.47774351 343.26692087 67.63012648 343.26170516 C62.96013388 343.25860772 58.29018328 343.2581142 53.62019348 343.26477814 C49.22711355 343.27061051 44.83414785 343.26644849 40.44108009 343.25498962 C38.84126283 343.25237422 37.24143573 343.25305375 35.64162254 343.25751495 C7.8195698 343.327869 -14.48221516 336.79164501 -35.23828125 317.3046875 C-50.97331182 300.997474 -58.34158186 279.76059002 -58.31622314 257.32398987 C-58.31919427 256.4879373 -58.32216539 255.65188474 -58.32522655 254.79049724 C-58.33385036 252.00818898 -58.33541642 249.22592405 -58.33691406 246.44360352 C-58.34154683 244.44047454 -58.34657211 242.43734645 -58.35195923 240.43421936 C-58.36504378 235.00397308 -58.37152084 229.57373915 -58.37596989 224.14347959 C-58.37890789 220.74419507 -58.38301413 217.34491387 -58.38747406 213.94563103 C-58.40114059 203.2909311 -58.41081054 192.63623881 -58.41467595 181.98153073 C-58.41915027 169.71851248 -58.4366727 157.45560604 -58.46567655 145.19262177 C-58.48736266 135.6907849 -58.49738397 126.18897932 -58.49871707 116.68711799 C-58.49976043 111.02318033 -58.50556749 105.35934789 -58.52353668 99.69543648 C-58.54013687 94.35935839 -58.54211546 89.02346326 -58.53339767 83.68736839 C-58.53263357 81.74169038 -58.53688607 79.79600204 -58.54685593 77.85034943 C-58.6767055 50.90356279 -53.18609633 27.90693597 -33.73828125 8.1171875 C-33.22507324 7.59358643 -32.71186523 7.06998535 -32.18310547 6.53051758 C-31.15809626 5.52868055 -30.10461362 4.55498826 -29.02230835 3.61534119 C-27.1563538 2.02311468 -27.1563538 2.02311468 -25.50994873 0.24505615 C-17.69280782 -6.66535926 -8.92507129 -2.59354213 0 0 Z " fill="#5D95FD" transform="translate(553.17578125,155.0078125)"/>
<path d="M0 0 C12.37467345 2.24994063 12.37467345 2.24994063 18.15429688 3.76831055 C18.78552963 3.93292282 19.41676239 4.0975351 20.06712341 4.26713562 C22.11869727 4.80314406 24.16870779 5.34488484 26.21875 5.88671875 C27.68524684 6.27102407 29.15184258 6.65495217 30.61853027 7.03852844 C34.46907146 8.04656004 38.31832608 9.05941823 42.16729736 10.07342529 C45.98972479 11.07966413 49.81323864 12.08175432 53.63671875 13.08398438 C58.12458136 14.26058111 62.61236388 15.43747618 67.09960938 16.61642456 C80.39185249 20.10819256 93.69394745 23.56120833 107 27 C107 31.95 107 36.9 107 42 C109.17033813 41.86646118 109.17033813 41.86646118 111.38452148 41.73022461 C142.16427243 40.01955772 169.81290881 41.46607221 199.5 49.8125 C200.53248619 50.10263725 200.53248619 50.10263725 201.58583069 50.39863586 C208.36084834 52.31125516 215.11728368 54.2837977 221.86185646 56.30097198 C230.32781175 58.83217554 238.83569474 61.11224503 247.40893555 63.24755859 C274.32364201 69.95434548 301.15349648 77.03979538 328 84 C328 143.4 328 202.8 328 264 C292.69 264 257.38 264 221 264 C221 218.46 221 172.92 221 126 C183.38 126 145.76 126 107 126 C107 171.54 107 217.08 107 264 C71.69 264 36.38 264 0 264 C0 176.88 0 89.76 0 0 Z " fill="#4E98FD" transform="translate(854,234)"/>
<path d="M0 0 C0.33 0 0.66 0 1 0 C1.76776475 4.0752634 2.11902034 7.91005447 2.09765625 12.0546875 C2.09282227 13.71757812 2.09282227 13.71757812 2.08789062 15.4140625 C2.07532227 17.12722656 2.07532227 17.12722656 2.0625 18.875 C2.05798828 20.0403125 2.05347656 21.205625 2.04882812 22.40625 C2.03708781 25.27088645 2.0206657 28.13541633 2 31 C2.99 31 3.98 31 5 31 C5 33.31 5 35.62 5 38 C5.99 38 6.98 38 8 38 C8 39.98 8 41.96 8 44 C8.6290625 44.08636719 9.258125 44.17273437 9.90625 44.26171875 C17.78925601 45.55576642 23.93542415 47.92820471 28.875 54.4375 C33.09853915 60.56606206 33.26545467 66.7010077 33.125 73.875 C33.11597656 74.75414063 33.10695313 75.63328125 33.09765625 76.5390625 C33.07424577 78.6928271 33.0383801 80.84645014 33 83 C34.98 83 36.96 83 39 83 C39 84.32 39 85.64 39 87 C36.69 87 34.38 87 32 87 C32 102.18 32 117.36 32 133 C37.94 133 43.88 133 50 133 C48.99967606 139.88572502 47.89672418 146.70818255 46.4921875 153.5234375 C46.22792969 154.8125 45.96367187 156.1015625 45.69140625 157.4296875 C45.28578238 159.40069738 44.87598801 161.37039768 44.45361328 163.33789062 C44.03605115 165.29268555 43.63908981 167.25184335 43.2421875 169.2109375 C43.0035498 170.34837402 42.76491211 171.48581055 42.51904297 172.65771484 C40.45688847 186.39567736 42.33263195 201.18556662 42.99389648 214.98608398 C43.10094913 217.27443555 43.20769089 219.56280168 43.31414795 221.85118103 C43.60242689 228.0295418 43.89497802 234.20769362 44.18828845 240.38581729 C44.49604621 246.88469914 44.79969992 253.38377274 45.10377502 259.88282776 C45.61523546 270.80309329 46.1290413 281.72324603 46.64477539 292.64331055 C47.17277517 303.82326235 47.69967904 315.00326471 48.22485352 326.18334961 C48.27329084 327.21448025 48.27329084 327.21448025 48.32270669 328.26644181 C48.67660548 335.80078052 49.03025396 343.33513096 49.38382816 350.8694849 C49.47817767 352.87989269 49.57252892 354.8903004 49.66688233 356.90070801 C49.76011075 358.88718963 49.85332989 360.87367168 49.946549 362.86015373 C50.30822715 370.56495602 50.67092046 378.26970965 51.03456295 385.97441947 C51.26221671 390.79928845 51.489381 395.62418041 51.71647644 400.4490757 C51.82063918 402.65950986 51.92502314 404.86993362 52.02966499 407.08034515 C52.56199976 418.3266323 53.08025127 429.57352381 53.56629944 440.82191467 C53.60915776 441.78146543 53.65201608 442.74101619 53.69617313 443.72964424 C54.08170244 452.82628445 54.07112656 461.89580002 54 471 C62.58 471 71.16 471 80 471 C80 477.6 80 484.2 80 491 C27.86 491 -24.28 491 -78 491 C-78 484.4 -78 477.8 -78 471 C-69.75 471 -61.5 471 -53 471 C-51.89537018 446.96460894 -50.79098503 422.92920664 -49.68688583 398.8937912 C-49.17369626 387.7221576 -48.6604321 376.55052745 -48.14697266 365.37890625 C-47.94823488 361.05468784 -47.74950443 356.73046908 -47.55078125 352.40625 C-47.47695205 350.79972628 -47.47695205 350.79972628 -47.40163136 349.16074753 C-46.60867913 331.90498886 -45.81727538 314.64915952 -45.02687359 297.39328384 C-44.43734573 284.52308651 -43.84610042 271.6529706 -43.25204539 258.7829814 C-42.86914692 250.48619611 -42.4876492 242.1893472 -42.10720754 233.8924489 C-41.88505957 229.04909365 -41.66220528 224.20577338 -41.43755341 219.36253357 C-41.23039383 214.89622708 -41.02514048 210.42983711 -40.8213625 205.96337509 C-40.74705169 204.34208265 -40.67204092 202.7208221 -40.5962553 201.09959793 C-39.53185634 187.13317181 -39.53185634 187.13317181 -40.734375 173.27807617 C-40.89454102 172.47081589 -41.05470703 171.6635556 -41.21972656 170.83183289 C-41.3947168 169.99400772 -41.56970703 169.15618256 -41.75 168.29296875 C-41.92756836 167.40515213 -42.10513672 166.51733551 -42.28808594 165.60261536 C-42.85060673 162.79586585 -43.42454748 159.99162411 -44 157.1875 C-44.57374549 154.3652209 -45.14497556 151.54248081 -45.71191406 148.71882629 C-46.06368806 146.96948283 -46.41963504 145.22097198 -46.78027344 143.47343445 C-46.94043945 142.68193497 -47.10060547 141.89043549 -47.265625 141.07495117 C-47.40774414 140.38261887 -47.54986328 139.69028656 -47.69628906 138.97697449 C-48 137 -48 137 -48 133 C-42.06 133 -36.12 133 -30 133 C-30 117.82 -30 102.64 -30 87 C-32.31 87 -34.62 87 -37 87 C-37 85.68 -37 84.36 -37 83 C-35.02 83 -33.04 83 -31 83 C-31.03480469 81.72125 -31.06960938 80.4425 -31.10546875 79.125 C-31.13362787 77.41667991 -31.16092574 75.70834548 -31.1875 74 C-31.21263672 73.16082031 -31.23777344 72.32164063 -31.26367188 71.45703125 C-31.34420435 64.53123866 -30.02318078 59.39894371 -26.4375 53.375 C-20.52699497 47.61604639 -14.25484065 44.30573484 -6 44 C-6 42.02 -6 40.04 -6 38 C-5.01 38 -4.02 38 -3 38 C-3 35.69 -3 33.38 -3 31 C-2.34 31 -1.68 31 -1 31 C-0.67 20.77 -0.34 10.54 0 0 Z M-24 96 C-24 108.21 -24 120.42 -24 133 C-20.04 133 -16.08 133 -12 133 C-12 120.79 -12 108.58 -12 96 C-15.96 96 -19.92 96 -24 96 Z M-5 96 C-5 108.21 -5 120.42 -5 133 C-1.04 133 2.92 133 7 133 C7 120.79 7 108.58 7 96 C3.04 96 -0.92 96 -5 96 Z M13 96 C13 108.21 13 120.42 13 133 C17.29 133 21.58 133 26 133 C26 120.79 26 108.58 26 96 C21.71 96 17.42 96 13 96 Z " fill="#6A93FE" transform="translate(411,7)"/>
<path d="M0 0 C9.85443748 2.31869117 19.6899932 4.63489995 29.49609375 7.13671875 C31.15541176 7.55831772 31.15541176 7.55831772 32.84825134 7.98843384 C36.37849198 8.88620715 39.90806771 9.78655442 43.4375 10.6875 C45.24544037 11.14846573 45.24544037 11.14846573 47.08990479 11.6187439 C61.46826656 15.28600713 75.84451108 18.96207001 90.1946106 22.73867798 C91.64133804 23.11941917 93.08833733 23.49912901 94.53561401 23.8777771 C96.49086042 24.39008339 98.44469972 24.9077514 100.3984375 25.42578125 C101.46755371 25.70848877 102.53666992 25.99119629 103.63818359 26.2824707 C106 27 106 27 107 28 C107.09571971 29.49283798 107.12188227 30.99019655 107.12025452 32.48609924 C107.12231651 33.93960281 107.12231651 33.93960281 107.12442017 35.42247009 C107.11902725 37.03007957 107.11902725 37.03007957 107.11352539 38.67016602 C107.11367142 39.79197266 107.11381744 40.9137793 107.1139679 42.06958008 C107.1132682 45.79770811 107.10547315 49.52578689 107.09765625 53.25390625 C107.09579227 55.83080518 107.09436827 58.40770447 107.09336853 60.98460388 C107.08993342 67.08675115 107.0820426 73.18887794 107.07201904 79.29101747 C107.05976273 86.91731552 107.05427519 94.54361644 107.04882812 102.16992188 C107.03907716 115.77996182 107.01904686 129.38996284 107 143 C71.69 143 36.38 143 0 143 C0 95.81 0 48.62 0 0 Z " fill="#3D9AFD" transform="translate(1323,355)"/>
<path d="M0 0 C6.65734448 1.21042627 13.07987226 2.41587239 19.58105469 4.14794922 C20.36647078 4.35354997 21.15188686 4.55915071 21.96110344 4.77098179 C24.53238695 5.44504307 27.10210973 6.12486342 29.671875 6.8046875 C31.5004144 7.28507064 33.32906062 7.76504728 35.1578064 8.24464417 C39.02231904 9.2588374 42.88619814 10.2753951 46.74957275 11.29391479 C55.80760969 13.68166778 64.86902235 16.05655829 73.93019485 18.43237877 C76.90385089 19.21216594 79.87738911 19.99240129 82.85092163 20.7726593 C96.59624858 24.37808268 110.35102789 27.94287431 124.125 31.4375 C125.89730896 31.88765287 127.66960712 32.33784825 129.44189453 32.78808594 C130.32136749 33.01150665 131.20084045 33.23492737 132.10696411 33.46511841 C132.98947845 33.68932465 133.8719928 33.91353088 134.78125 34.14453125 C135.66062225 34.36785126 136.53999451 34.59117126 137.4460144 34.82125854 C150.18026999 38.05824955 162.90253642 41.34202915 175.625 44.625 C176.90080933 44.95418427 178.17661865 45.28336853 179.49108887 45.62252808 C212.01121913 54.01566247 244.50608178 62.50605871 277 71 C277 71.66 277 72.32 277 73 C260.02323162 79.51250333 243.27042007 79.2848898 225.34790039 79.22705078 C222.88266505 79.22648574 220.41742936 79.22680504 217.95219421 79.22793579 C212.6731264 79.22838886 207.39412017 79.22277572 202.11506844 79.21146011 C194.48273319 79.19511103 186.85042177 79.18998756 179.21807092 79.18748413 C166.83099522 79.18312167 154.44394607 79.16985219 142.05688477 79.15087891 C130.03377412 79.13248239 118.01067073 79.11834441 105.98754883 79.10986328 C105.24474079 79.10933783 104.50193274 79.10881239 103.73661537 79.10827102 C100.00965712 79.10566068 96.28269881 79.10313333 92.55574048 79.10064721 C61.70380376 79.07995991 30.85191586 79.04311474 0 79 C0 52.93 0 26.86 0 0 Z " fill="#3A9BFD" transform="translate(1570,419)"/>
</svg>
